<?xml version="1.0" encoding="UTF-8"?>
<svg id="Layer_1" xmlns="http://www.w3.org/2000/svg" version="1.1" viewBox="0 0 720 720">
  <!-- Generator: Adobe Illustrator 29.8.2, SVG Export Plug-In . SVG Version: 2.1.1 Build 3)  -->
  <g>
    <path d="M143.62,594.677l13.371-82.64c1.461-2.114,22.371-.31,26.414-.904l6.476,47.606,21.389-47.615h26.861l-12.933,83.553h-20.892l7.461-48.587-17.514,37.312c-1.151,2.57-15.353,1.833-15.929,1-2.905-10.952-2.791-22.905-4.891-33.922-.303-1.589.655-1.676-1.952-1.465l-6.969,45.662h-20.892Z" fill="#f8f7f7"/>
    <path d="M504.751,594.677h-20.394l-1.338-1.608c-1.446-7.826-1.692-18.782-4.091-26.116-.407-1.245.695-1.464-1.522-1.476-1.62-.008-4.762.246-5.471,1.759l-3.993,27.44h-20.892c.748-1.179,11.042-82.46,12.865-83.128,1.601-1.118,35.026-.811,39.254-.316,8.259.966,14.689,6.278,14.565,14.901-.068,4.706-3.169,23.062-4.705,27.544-2.116,6.172-6.044,7.935-11.092,11.456l6.814,29.543ZM474.901,550.96c3.871-.424,11.809,1.355,14.378-1.997,1.58-2.062,4.685-20.437,2.601-21.871-2.008-1.381-10.955.112-13.98-.415l-2.999,24.283Z" fill="#f8f7f7"/>
    <path d="M267.736,511.375c11.363-.354,36.703-4.218,38.944,11.006,1.122,7.608-3.473,31.608-5.022,40.581-1.974,11.432-2.004,25.388-14.987,30.055-49.233,6.626-50.187-.557-41.433-45.32,2.696-16.13,1.74-33.59,22.497-36.322ZM284.749,527.78c-4.898-1.474-13.31-3.119-15.317,2.74-1.366,14.053-5.542,28.241-6.419,42.307-.103,1.656-.363,4.223.132,5.687.839,2.486,14.348,3.145,14.854-1.737,2.711-16.211,6.395-32.581,6.75-48.997Z" fill="#f8f7f7"/>
    <path d="M405.025,511.375c11.001-.112,36.087-4.428,38.971,10.007,1.298,8.181-4.26,37.555-6.043,47.409-2.487,13.742-4.206,24.193-21.258,25.874-11.48-.262-36.436,4.642-38.311-11.137-.925-7.318,6.072-53.251,9.086-60.152,3.094-7.082,9.899-10.994,17.556-12.002ZM414.979,578.896c1.471-1.702,6.872-39.121,7.182-43.978.117-1.834.402-5.085-.124-6.658-.828-2.472-13.622-2.912-14.566,1.048-1.718,13.672-6.203,29.011-7.159,42.549-.13,1.837-.581,6.807.911,7.822s12.449.729,13.756-.784Z" fill="#f8f7f7"/>
    <path d="M539.571,570.388c-4.945,8.619,1.072,11.302,9.434,9.691,4.057-.781,6.331-10.212,5.052-12.59-2.569-4.775-26.188-12.769-28.943-19.385-2.885-6.927.794-24.777,5.509-30.659,6.068-7.569,28.027-7.464,37.062-6.086,14.397,2.196,12.549,12.947,11.686,24.059l-20.892.961c.124-3.332,3.189-8.805-1.492-9.707-8.604-1.658-14.228,2.346-12.447,11.172.569,2.819,13.495,8.66,16.841,10.761,10.226,6.421,14.151,6.881,12.889,20.21-1.001,10.564-5.023,23.743-17.547,25.61-19.731.863-48.711,5.38-38.043-24.036h20.892Z" fill="#f8f7f7"/>
    <path d="M377.41,511.124c.387,5.558-1.062,11.001-2.093,16.412l-18.911.669-9.837,66.471h-20.394l8.456-66.065h-18.902c.752-5.621.893-12.692,3.482-17.488h58.199Z" fill="#f8f7f7"/>
    <path d="M474.901,550.96l2.999-24.283c3.025.527,11.972-.966,13.98.415,2.084,1.433-1.021,19.809-2.601,21.871-2.569,3.352-10.507,1.573-14.378,1.997Z" fill="#0d0e0e"/>
    <path d="M284.749,527.78c-.355,16.416-4.039,32.786-6.75,48.997-.506,4.882-14.015,4.223-14.854,1.737-.494-1.464-.235-4.031-.132-5.687.877-14.066,5.053-28.254,6.419-42.307,2.007-5.86,10.419-4.215,15.317-2.74Z" fill="#0d0e0e"/>
    <path d="M414.979,578.896c-1.308,1.513-12.263,1.8-13.756.784s-1.04-5.985-.911-7.822c.956-13.538,5.441-28.878,7.159-42.549.943-3.96,13.738-3.52,14.566-1.048.527,1.572.241,4.824.124,6.658-.31,4.857-5.711,42.276-7.182,43.978Z" fill="#0d0e0e"/>
    <g>
      <path d="M126.707,607.307c.534-34.319,15.618-69.926,13.435-102.983-.004,0-119.884,0-119.884,0l24.871-108.813h654.613l-16.057,108.677-85.455.585c-5.318,20.285-6.357,69.582-14.856,86.533-4.791,8.724-14.128,15.126-24.361,16.043l-432.305-.041ZM180.429,406.197h-20.394l-11.389,69.313c-4.529,2.369-9.174,1.369-13.926.59-1.593-2.493,8.398-64.165,8.775-68.302.061-2.818-20.188-1.624-20.664-1.497l-10.98,73.098c.942,14.674,24.206,14.157,35.236,13.251,16.977-1.394,21.2-7.682,24.232-22.97,4.085-20.599,5.703-42.684,9.111-63.482ZM251.064,406.197h-58.696l-2.985,17.488h17.907l-9.949,68.008h21.887l10.831-68.416,19.005-.572,1.999-16.508ZM305.422,486.486c2.306-2.189,4.366-6.046,5.079-9.128.725-17.677,8.062-38.939,8.244-56.143.924-21.033-34.887-15.862-47.785-12.591-17.265,7.494-15.339,46.923-18.888,63.167-.707,9.381-.056,16.028,9.958,19.395,9.755,3.279,35.559,2.735,43.392-4.701ZM372.429,492.672c-.984,12.415,8.95,6.601,17.939,8.293,2.648-1.805-1.252-6.218.387-8.363,30.805-7.181,19.724-48.202,27.527-71.344-.325-20.487-32.584-15.574-46.063-13.815-13.976,3.933-14.526,20.383-16.575,32.39-1.453,8.517-5.773,32.409-5.035,39.606.773,12.697,18.541,12.793,21.821,13.233ZM553.499,406.197h-48.748l-12.901,85.026c1.52,2.379,2.087.47,2.455.47h46.758c.21,0,.533.668.995.762,2.033-.186,2.816-14.469,3.482-17.278h-29.846l2.994-18.45,23.872-.003,1.985-16.522h-23.876l2.994-17.479,27.748-.108c1.15-5.433,2.645-10.785,2.088-16.417ZM615.18,406.197h-47.753l-12.933,85.496h50.737l1.99-16.516h-28.851l3.122-18.328,22.694-.184,2.039-16.464h-22.882l3.122-17.357,26.625-.23c1.15-5.433,2.645-10.785,2.088-16.417ZM615.18,492.665h20.394l7.959-45.672,9.46,44.693,20.78-.096,13.036-85.392h-19.4l-6.964,45.672-10.354-44.305c-2.263-2.809-16.675-.847-20.846-1.236l-14.066,86.336ZM98.851,407.169h-37.307c-8.883,27.268-17.389,56.094-24.396,84.032-.197,3.057,1.062.493,1.514.493h16.912c1.007.626,1.603,1.52,3.014.036l3.452-15.58h16.912v15.545h21.887l-1.99-84.524ZM455.008,407.169h-21.887l-8.833,55.982c-1.894,17.315-4.581,28.093,17.244,29.559,19.728,1.325,39.275.414,41.062-23.139l9.224-62.401h-21.887l-9.946,66.553c-.223,4.814-13.808,3.822-14.786,2.287-1.758-1.554,9.545-65.664,9.809-68.84ZM143.62,594.677h20.892l6.969-45.662c2.607-.211,1.649-.124,1.952,1.465,2.101,11.017,1.986,22.971,4.891,33.922.576.833,14.778,1.57,15.929-1l17.514-37.312-7.461,48.587h20.892l12.933-83.553h-26.861l-21.389,47.615-6.476-47.606c-4.043.594-24.953-1.21-26.414.904l-13.371,82.64ZM267.736,511.375c-20.757,2.733-19.801,20.193-22.498,36.321-8.751,44.74-7.808,51.956,41.435,45.322,12.982-4.668,13.012-18.625,14.986-30.056,1.55-8.973,6.145-32.973,5.022-40.58-2.23-15.214-27.592-11.381-38.945-11.007ZM377.41,511.124h-58.199c-2.589,4.796-2.73,11.866-3.482,17.488h18.902l-8.456,66.065h20.394l9.837-66.471,18.911-.669c1.03-5.411,2.48-10.855,2.093-16.412ZM405.025,511.375c-7.656,1.008-14.462,4.92-17.556,12.002-3.014,6.9-10.011,52.834-9.086,60.151,1.865,15.765,26.84,10.9,38.311,11.138,17.053-1.682,18.772-12.132,21.258-25.875,1.783-9.855,7.341-39.228,6.043-47.408-2.869-14.437-27.981-10.128-38.971-10.008ZM504.751,594.677l-6.814-29.543c5.048-3.521,8.976-5.284,11.092-11.456,1.536-4.482,4.637-22.838,4.705-27.544.124-8.623-6.306-13.935-14.565-14.901-4.227-.495-37.652-.801-39.252.313-1.826.671-12.12,81.952-12.867,83.131h20.892l3.993-27.44c.709-1.513,3.851-1.767,5.471-1.759,2.217.011,1.115.231,1.522,1.476,2.399,7.334,2.645,18.29,4.091,26.116l1.338,1.608h20.394ZM539.571,570.388h-20.892c-10.667,29.394,18.301,24.912,38.043,24.036,12.523-1.867,16.546-15.046,17.546-25.61,1.262-13.328-2.663-13.789-12.889-20.21-3.346-2.101-16.273-7.942-16.841-10.761-1.781-8.826,3.843-12.83,12.447-11.172,4.681.902,1.616,6.374,1.492,9.707l20.892-.961c.863-11.112,2.712-21.863-11.686-24.059-9.035-1.378-30.994-1.484-37.062,6.086-4.715,5.882-8.394,23.732-5.509,30.659,2.756,6.616,26.375,14.611,28.943,19.385,1.279,2.378-.995,11.809-5.052,12.59-8.362,1.611-14.379-1.072-9.434-9.691Z" fill="#0d0e0e"/>
      <path d="M615.18,492.665l14.066-86.336c4.171.389,18.583-1.573,20.846,1.236l10.354,44.305,6.964-45.672h19.4l-13.036,85.392-20.78.096-9.46-44.693-7.959,45.672h-20.394Z" fill="#f8f7f7"/>
      <path d="M372.429,492.672c-3.193-.475-21.057-.475-21.82-13.233-.739-7.196,3.581-31.088,5.034-39.605,2.049-12.007,2.599-28.457,16.576-32.39,13.486-1.718,45.731-6.705,46.06,13.814-7.801,23.139,3.278,64.163-27.524,71.344-1.64,2.146,2.26,6.558-.388,8.364-9.008-1.687-18.922,4.112-17.939-8.293ZM395.08,422.944c-1.832-1.797-13.479-2.253-15.023.958-.313,6.481-8.837,49.102-7.196,51.342.985,1.344,14.492,2.059,15.986-1.041-.21-3.829,10.163-49.122,6.232-51.258Z" fill="#f8f7f7"/>
      <path d="M305.422,486.486c-7.833,7.436-33.637,7.98-43.392,4.701-10.014-3.366-10.666-10.014-9.956-19.394,3.579-16.313,1.607-55.601,18.883-63.167,12.909-3.26,48.702-8.45,47.787,12.589-.181,17.205-7.518,38.467-8.244,56.144-.713,3.082-2.773,6.939-5.079,9.128ZM274.039,476.059c3.976-.472,13.243,1.926,15.094-2.081l7.744-47.919c.147-5.816-13.549-5.416-15.803-1.727l-7.036,51.727Z" fill="#f8f7f7"/>
      <path d="M180.429,406.197c-3.409,20.799-5.026,42.884-9.111,63.482-3.032,15.289-7.255,21.576-24.232,22.97-11.03.906-34.294,1.423-35.236-13.251l10.98-73.098c.358-.218,20.805-1.236,20.664,1.495-.406,4.413-10.341,65.492-8.775,68.304,4.752.779,9.397,1.779,13.926-.59l11.389-69.313h20.394Z" fill="#f8f7f7"/>
      <path d="M455.008,407.169l-9.979,62.627.169,6.213c.978,1.535,14.563,2.527,14.786-2.287l9.946-66.553h21.887l-9.224,62.401c-1.786,23.554-21.334,24.464-41.062,23.139-21.825-1.466-19.138-12.243-17.244-29.559l8.833-55.982h21.887Z" fill="#f8f7f7"/>
      <path d="M553.499,406.197c.557,5.632-.938,10.984-2.088,16.417l-27.748.108-2.994,17.479h23.876l-1.985,16.522-23.872.003-2.994,18.45h29.846c-.666,2.81-1.449,17.092-3.482,17.278-.463-.094-.786-.762-.995-.762h-46.758c-.368,0-.935,1.91-2.455-.47l12.901-85.026h48.748Z" fill="#f8f7f7"/>
      <path d="M615.18,406.197c.557,5.632-.938,10.984-2.088,16.417l-26.625.23-3.122,17.357h22.882l-2.039,16.464-22.694.184-3.122,18.328h28.851l-1.99,16.516h-50.737l12.933-85.496h47.753Z" fill="#f8f7f7"/>
      <polygon points="251.064 406.197 249.065 422.705 230.06 423.277 219.228 491.693 197.342 491.693 207.29 423.685 189.383 423.685 192.367 406.197 251.064 406.197" fill="#f8f7f7"/>
      <path d="M395.08,422.944c3.946,1.942-6.471,47.634-6.231,51.258-1.495,3.1-15.002,2.386-15.988,1.041-1.641-2.24,6.883-44.86,7.196-51.342,1.544-3.211,13.191-2.754,15.023-.958Z" fill="#0d0e0e"/>
      <path d="M274.039,476.059l7.036-51.727c2.254-3.689,15.95-4.089,15.803,1.727l-7.744,47.919c-1.851,4.007-11.118,1.609-15.094,2.081Z" fill="#0d0e0e"/>
      <g>
        <path d="M98.851,407.169l1.99,84.524h-21.887v-15.545h-16.912l-3.452,15.58c-1.419,1.409-1.886.71-3.014-.036,0,0-16.912,0-16.912,0-.452,0-1.711,2.564-1.512-.492,7.005-27.939,15.51-56.762,24.393-84.032h37.307ZM78.954,422.714c-5.004-1.456-8.854,32.023-11.953,37.391l11.953.499v-37.89Z" fill="#f8f7f7"/>
        <path d="M78.954,422.714v37.89l-11.953-.499c3.118-5.397,6.91-38.759,11.953-37.391Z" fill="#0d0e0e"/>
      </g>
    </g>
  </g>
  <g>
    <path d="M132.584,380.881c.211-2.754,12.146-2.091,12.824-5.494,1.063-3.753-7.013-20.988-4.656-28.797.292-.967,8.697-7.957,10.465-9.442.848-.712,2.997-.392,3.304-1.596.344-1.346.163-7.929-.553-9.072-1.362-2.176-15.208-10.458-15.434-11.376-.235-9.541-.121-20.188,2.436-29.502,4.937-10.85,21.471-2.469,21.286-19.595-1.345-5.246-10.184-9.083-9.849-15.783.352-7.03,9.622-20.427,12.256-27.458,2.223-2.11,16.593-1.068,20.969-2.359.309-.091,4.557-4.093,4.628-4.4,1.507-6.539-5.626-14.309-5.589-19.243.02-2.626,20.307-24.197,23.205-24.542,3.813-.454,11.683,6.983,17.166,5.117,12.657-4.308-.344-19.425,7.367-26.386,38.041-20.184,15.596-14.329,43.656-4.374,13.136-1.992,3.501-18.72,12.712-22.667,3.685-1.579,25.074-7.502,28.145-7.12,2.208.274,10.236,9.655,12.064,11.616,1.936,2.077-.512,3.981,6.986,2.723,7.206-1.209,7.886-14.895,12.511-16.919.816-.357,14.337-1.537,16.401-1.557,2.32-.023,8.188.793,10.011,1.958.356.228,4.402,5.661,5.074,6.676,1.289,1.946,2.804,6.853,3.847,7.933,1.715,1.774,8.799,2.445,11.158,1.674,1.336-.437,9.897-12.556,12.705-13.34l32.285,7.841c1.071,4.108.219,15.976,3.588,18.356.479.339,6.512,2.666,6.881,2.644,3.09-.183,10.976-8.597,16.875-8.446,3.504.089,25.853,12.407,27.467,15.042,3.294,5.379-2.889,15.679,1.227,20.675,10.32,10.638,15.29.074,25.02.265,2.851.467,21.757,19.939,22.259,23.05.908,5.629-8.92,12.063-6.045,18.478,5.058,11.288,16.898,3.199,24.131,6.574,3.167,1.478,7.59,18.246,10.424,20.91,1.597,1.502,8.241,1.959,9.335,5.508,2.44,5.611-12.236,5.622-14.759,16.427-.151.961,1.802,10.456,2.113,10.925.978,1.475,15.858,4.124,17.25,5.991,1.783,2.392,5.182,28.065,4.489,31.577-.729,3.694-14.988,9.135-15.76,10.345-.417.654-.39,7.778-.14,9.056.683,3.495,14.405,9.627,15.696,13.827,1.612,5.244-5.889,27.467-4.369,29.475,3.844,2.568,14.718,1.414,16.508,4.81H132.584ZM393.236,139.939c-19.36-1.744-17.344-1.051-21.927-19.389l-18.207-.086c-10.326,20.302-1.69,18.284-28.844,19.515-13.096-20.45-9.667-14.174-31.407-9.665-.389,2.686-.767,18.733-1.705,19.442-.832.629-18.565,7.64-19.603,7.468-3.282-.543-12.106-10.579-15.925-10.272-24.504,12.654-15.658,4.9-15.059,28.924-3.766,1.47-12.381,11.821-15.164,12.516-3.173.792-15.581-7.484-18.167-6.243-19.442,20.303-14.946,9.73-6.204,31.944-.167.948-10.088,15.512-10.938,15.997-2.701,1.541-19.205-1.245-20.796.803-.734,3.684-8.776,16.891-8.573,19.332.14,1.678,10.031,10.075,10.519,11.858.498,1.817-4.501,19.894-5.832,21.149-2.571,2.426-16.149,4.39-17.443,6.283.844,4.215-4.849,20.827-.456,21.415-.119.664,11.495,7.317,11.933,6.796-.372-6.636,2.761-14.354,6.065-19.84,1.436-2.166,4.35-.538,1.899-6.387,2.547-1.848,1.723-4.573,3.551-7.715,2.383-4.094,6.332-6.373,8.596-10.055,32.651-81.678,118.924-135.835,209.707-123.102,12.608,1.652,29.246,6.419,41.304,10.667,20.339,7.166,38.697,21.191,61.164,20.411-.304-2.229-6.766-5.755-6.978-6.504-1.196-4.724,2.643-14.386,1.123-19.274-21.667-13.191-13.536-10.61-33.605.285-1.776.283-18.559-6.544-19.08-8.168-.84-2.619-1.206-16.423-2.281-17.688-7.272-.246-19.815-9.982-22.747-.132-5.913,4.02-7.683,12.922-14.923,9.715ZM518.587,187.544c-4.481,4.94-13.772,10.957-19.888,14.073,41.878,38.117,9.142,38.009,61.671,39.352-1.375-1.476-3.297-9.033-4.142-9.542-2.692-1.62-15.847,1.615-19.23-1.142-.821-.669-11.358-16.038-11.457-17.053-.131-1.338,4.002-10.161,4.984-12.087.371-.729,3.289-1.939,2.835-4.238l-12.285-13.233c-1.802.614-1.993,3.313-2.488,3.869ZM428.384,222.999c-33.694-5.741-71.402-2.651-105.484,5.419-37.395,17.491-47.324,31.514-92.242,35.677-18.733,2.927-38.981,8.926-52.355,22.742-1.295,2.498,4.99,4.909,5.019,10.491-1.486,1.151-.728,1.69-.995,2.915-.892,2.12-2.975,6.171-2.443,9.385-4.884-.092-5.083-10.522-9.52-4.066-6.113,8.314,1.311,13.703-2.913,14.528.244,4.698,5.953,10.808,2.937,16.099-2.523,1.666-4.04,3.08-4.569,6.159-.11.638.585,1.422.59,1.613.013.454-.714,1.25.039,2.613,1.033,1.868,15.583,5.666,19.038,6.446,41.761,8.935,92.503,11.961,134.427,4.571,1.724-1.036,7.298-32.001,9.889-38.173,10.416-30.169,51.084-39.019,57.466-1.687,1.831,10.624.765,20.45.004,31.09,36.469-6.215,73.143-12.846,109.503-18.901,1.616-.455,1.682-.988,2.149-2.566,3.534-11.95,2.388-25.872,11.705-36.341,8.211-8.63,12.278-15.021,25.866-10.201,9.671,12.042,13.812,24.41,11.003,40.214.721,2.783,2.679.661,2.925.591,5.085-2.484,9.796-12.613,8.954-18.459-.869-13.987-3.942-30.373-13.078-41.077-3.087-.884-2.639.124-4.536-2.609-7.357-.868-6.484,2.737-12.231-3.92M558.376,245.847c-7.779.72-15.149,2.679-23.004,2.305-2.623.319,1.591,3.691,5.445,3.484,1.035.018,18.69-4.315,17.559-5.788ZM564.35,288.585c4.014,17.529,2.101,27.66-10.504,40.749-.5,1.526-2.558,14.772-2.466,16.099.394,4.368,14.543,4.648,18.925,6.834,9.882,4.129-20.692,6.392-21.868,7.23l3.778.492-.791,1.43c2.348.741,23.472,6.928,26.396,3.952,4.771-20.068,2.219-16.163-12.265-25.492-.532-.896-.563-18.419-.286-20.722.36-2.997,13.005-6.771,14.514-9.183,1.899-3.035-.431-6.265-.51-7.788-.05-1.602.088-3.283,0-4.858-.266-1.869-.24-7.894-1.61-8.843-2.467-1.709-10.512-2.806-13.797-3.8-1.187.675.302,2.827.484,3.9ZM513.613,309.473c-.77,4.745.561,11.075,0,16.03l2.837-15.203c10.896-30.802,25.885-4.87,21.775,14.466-.932,6.723-6.445,19.619-14.969,17.052-2.826-.851-3.39-5.749-6.62.627l7.374,6.26c21.162-1.822,21.31-44.275,11.278-56.993-.402-.331-9.195-2.301-10.239-2.239-3.652.217-9.33,4.962-9.442,8.822l1.994-1.939c4.305,1.778-.335,3.343-.929,4.643-.508,1.112-2.928,7.671-3.059,8.474ZM177.34,303.151c2.47-4.901,2.062-9.858-3.967-11.642l3.967,11.642ZM341.503,349.792v-17.974c1.147-6.264,5.913-17.763,11.955-21.354,5.883-2.44,9.705,1.032,14.389,2.224.227.058,5.417.714,4.503-1.263-18.472-15.723-33.458,4.088-34.811,22.351-.3,4.05-1.177,14.865,3.964,16.016ZM361.395,340.081l-2.473,1.907c.592,2.185-5.807,5.674-4.48,6.828,1.9,1.651,8.868-5.611,6.953-8.734ZM353.446,365.327c2.361-1.183,5.612,1.584,6.464,1.59,10.498-3.53,20.551-14.225,17.397-25.864-4.72,12.909-7.784,23.072-23.861,24.274ZM157.442,344.937c-2.123-.652-7.554,5.719-7.965,7.339-.272,1.708,2.355,15.475,3.014,15.97,3.241.118,5.147-5.405,6.279-6.535,4.382-.203,2.497-4.274,7.635-3.185.029-1.688-2.442-1.085-3.693-2.225-3.204-2.921-4.593-10.732-5.27-11.365Z" fill="#0d0e0e"/>
    <path d="M183.317,297.385c7.086-3.625,47.709,4.049,55.941,4.146,3.254,1.103,13.489,19.14,11.879,20.628-23.886.112-49.557.558-72.081-7.027-.302-2.511,3.358-14.356,4.261-17.747ZM217.142,316.815v.972h16.912v-.972h-16.912Z" fill="#0d0e0e"/>
    <path d="M157.437,344.993c.677.633,2.066,8.444,5.27,11.365,1.251,1.14,3.721.536,3.693,2.225-5.129-1.091-3.261,2.984-7.635,3.185-1.132,1.131-3.038,6.653-6.279,6.536-.659-.496-3.286-14.262-3.014-15.97.415-1.629,5.826-7.977,7.964-7.34Z" fill="#969594"/>
    <path d="M556.34,231.152c-2.692-1.62-15.964,1.947-19.346-.81-.821-.669-11.358-16.038-11.457-17.053-.131-1.338,4.002-10.161,4.984-12.087.371-.729,3.289-1.939,2.835-4.238l-12.285-13.233c-1.802.614-1.993,3.313-2.488,3.869-4.51,4.961-13.74,10.935-19.888,14.073,41.879,38.128,9.156,38.01,61.671,39.352-1.375-1.476-3.18-9.365-4.026-9.874Z" fill="#969594"/>
    <path d="M558.371,245.903c1.179,1.452-16.509,5.806-17.559,5.789-3.854.207-8.435-3.542-5.812-3.861,7.854.375,15.592-1.208,23.371-1.928Z" fill="#969594"/>
    <path d="M565.551,339.935c-.533-.896-.564-18.418-.288-20.722,3.98-6.977,20.078-4.403,14.305-16.659-.034-.644-.049-1.608-.097-2.25-.071-.951-.073-2.003-.204-2.92-.266-1.869-.24-7.894-1.61-8.843-2.467-1.709-10.512-2.806-13.797-3.8-1.187.675.302,2.827.484,3.9,4.017,17.476,2.092,27.697-10.502,40.75-.502,1.525-2.56,14.771-2.468,16.099.415,4.37,14.523,4.644,18.927,6.833,9.865,4.124-20.671,6.4-21.869,7.231l3.778.492-.791,1.43c2.287.691,23.533,6.97,26.395,3.951,4.742-19.95,2.302-16.164-12.264-25.491Z" fill="#969594"/>
    <path d="M408.154,130.279c-5.907,4.015-7.687,12.925-14.923,9.715-19.331-1.753-17.339-1.005-21.927-19.389,0,0-18.207-.086-18.207-.087-10.302,20.249-1.693,18.303-28.844,19.515-13.088-20.411-9.613-14.203-31.407-9.665-.389,2.686-.767,18.733-1.705,19.442-.832.629-18.565,7.64-19.603,7.468-3.282-.543-12.106-10.579-15.924-10.273-24.521,12.664-15.651,4.897-15.06,28.924-3.766,1.47-12.381,11.821-15.164,12.516-3.173.792-15.581-7.484-18.167-6.244-19.457,20.326-14.944,9.714-6.204,31.945-.167.948-10.087,15.512-10.938,15.997-2.701,1.541-19.205-1.245-20.796.803-.734,3.684-8.776,16.891-8.573,19.332.14,1.678,10.031,10.075,10.519,11.858.498,1.817-4.501,19.894-5.832,21.149-2.571,2.426-16.149,4.39-17.443,6.283.853,4.243-4.859,20.75-.456,21.415-.119.664,11.495,7.317,11.933,6.796-.371-6.641,2.76-14.35,6.065-19.84,1.436-2.166,4.349-.538,1.899-6.387,2.547-1.848,1.723-4.573,3.551-7.715,2.383-4.094,6.332-6.373,8.597-10.053,32.648-81.68,118.917-135.834,209.703-123.106,12.609,1.653,29.247,6.42,41.305,10.669,20.339,7.166,39.363,21.4,61.831,20.62-8.83-10.886-8.412-1.119-6.436-19.645.14-2.226,1.178-4.933,0-6.46-.55-.714-14.619-8.776-15.661-9.032-4.528-1.114-14.334,8.599-18.355,9.242-1.775.284-18.233-6.351-18.754-7.975-.84-2.619-1.206-16.423-2.281-17.688-7.272-.246-19.815-9.982-22.747-.132" fill="#969594"/>
    <g>
      <path d="M183.317,297.385c-.029-5.582-6.824-8.178-5.529-10.676,13.406-13.826,34.086-20.347,52.835-23.276,44.984-4.184,51.616-26.66,91.987-35.499,52.551-11.505,71.748-10.555,106.124-5.38,17.169,2.585,25.957,4.222,33.638,6.094,24.804,6.048,45.365,13.474,67.272,26.932l-40.903,9.734c16.134.091,35.45-4.805,51.3-2.973,4.944.572,5.261,8.209,10.376,4.926,1.637,2.559,1.83,3.028,2.62,4.796l-20.526,2.016c-.722.705,3.521,3.94,3.948,4.589.374.569-.309,2.072.031,2.201-19.652-7.489-31.967,12.87-38.307,28.17l-1.499-7.762-2.984,7.761c-1.869.142-.954-3.135-.855-4.237,1.049-17.484,12.498-32.364,29.716-37.533h-14.425c-.198,0-1.908,1.463-3.243,1.691-12.108,2.066-23.849,5.554-36.058,7.059-.908,4.433,6.889-.56,5.978,3.876l-67.654,10.691c-.378-4.727,1.371-11.766-1.98-15.54-.082,5.49.076,11.022-.01,16.511-6.568,1.584-12.898,3.793-19.9,3.89-.772,1.064,13.422,20.902,1.993,22.341-1.776-10.303-6.42-19.399-16.912-23.317l1.486-1.944c-28.598-9.389-41.738,17.872-52.725,37.887-4-9.613,12.942-23.994,7.959-28.165-5.219,11.56-19.843,12.471-31.005,15.374-42.026,11.593-85.782,14.839-127.669-.806-1.273-3.942-.463-7.665,1.965-11.197,4.437-6.456,4.087,2.359,8.972,2.451-.532-3.214,2.613-6.751,3.505-8.871-.433,1.986-3.847,14.98-3.407,15.58,22.525,7.585,47.647,7.001,71.536,6.89,1.611-1.488-8.452-19.035-11.705-20.136-8.456-.111-48.619-7.752-55.942-4.147ZM414.082,230.392c-29.7-1.546-84.596-8.6-108.151,10.655-6.562,4.713-29.455,11.882-31.088,18.441,2.344-.99,3.101,1.77,3.696,1.909,3.376.788,7.291-.972,9.568-.631,33.853.649,67.501,5.821,101.449,4.37,6.335-8.892,23.194-25.132,24.526-34.745ZM431.035,267.267c10.509-1.451,76.614-2.702,71.707-17.036-1.966-3.301-20.82-12.716-25.258-14.349-45.303-13.842-55.762-5.684-80.274,30.919,2.977,3.321,6.522,2.62,10.944,2.41,6.076,4.206,14.619,13.07,22.881,11.649-9.627-10.1-9.495-10.306,4.968-11.66.194-.809-4.702-1.907-4.968-1.932ZM303.695,268.228l-.481-1.917c-20.687,4.305-42.039,9.166-60.201,20.377,20.011-6.711,39.581-15.168,60.682-18.46ZM398.702,287.669c-5.772.332-12.058,0-17.907,0-.304,0-1.861,1.591-1.489,2.416l3.954,3.414c.602-6.046,16.008-3.327,20.907-5.841-.455-2.676-4.666-.035-5.466.011ZM257.283,307.734c1.468,1.397,6.588,5.581,8.319,5.962,6.06.586,21.195,1.802,26.733-1.657,7.07-1.007,22.097-2.191,28.025-4.693,8.877-3.747,5.63-14.916-5.229-14.896-19.124.695-43.487,6.468-63.176,7.864-.758,1.073,4.174,6.323,5.329,7.421Z" fill="#b4cc3c"/>
      <path d="M182.322,300.299c.267-1.224-.491-1.764.995-2.915.011,2.056-.555,1.869-.995,2.915Z" fill="#b4cc3c"/>
      <path d="M407.159,290.584l67.654-10.691c.911-4.435-6.886.557-5.978-3.876,12.209-1.505,23.95-4.993,36.058-7.059,1.335-.228,3.045-1.691,3.243-1.691h14.425c-17.223,5.174-28.665,20.046-29.716,37.534-.1,1.101-1.015,4.378.854,4.237l2.984-7.761,1.499,7.762c4.284-10.482,12.204-28.027,28.269-29.802-18.627,15.979-22.708,27.249-27.22,48.339-.468,1.577-.846,1.946-2.462,2.402-36.361,6.055-73.032,12.685-109.503,18.901.761-10.64,1.827-20.466-.005-31.091,10.353-1.417-3.338-21.123-1.993-22.341,6.872-.08,13.332-2.306,19.9-3.89,2.985,15.423-5.404,29.993.849,45.208-.254,2.417-8.74.64-9.798,3.359,24.522-2.987,50.937-3.344,74.309-11.455,5.368-2.754,8.801-8.543,14.227-11.377.465-1.839-2.303-1.977-3.028-3.09-2.707-4.152,4.355-13.471,5.751-18.531.867-4.835,5.244-19.844.273-22.574-.018,8.009-1.281,16.827-3.244,24.531-.941,3.554-5.814,12.788-5.765,14.744.009.346,4.265,1.589,2.925,5.733-12.452,13.02-56.357,17.381-74.51,19.12.236-2.665-.676-5.185-.993-7.779l2.427-3.023c20.765-3.686,45.316-4.999,65.202-11.084,3.598-2.613-1.172-4.969-4.171-4.168l-63.458,11.474c.007-10.73,1.197-21.301.995-32.061Z" fill="#449243"/>
      <path d="M168.394,316.815c41.921,15.645,85.611,12.399,127.669.806,11.162-2.903,25.63-3.962,30.849-15.522,4.997,4.093-10.47,19.987-7.802,28.313,10.987-20.015,24.127-47.276,52.725-37.887l-1.486,1.944c-17.252-5.556-34.072,9.568-40.552,25.005-2.591,6.172-8.165,37.137-9.889,38.172-1.116.671-17.856,2.645-20.701,2.877-35.581,2.902-78.875.425-113.726-7.447-3.718-1.487-23.969-3.73-19.077-9.059,1.018,1.374,5.763,1.711,5.969,1.943.634.716-1.664,4.534,2.732,2.208,1.12-.593,1.277-2.098,1.946-2.221,2.764-.511,13.032,2.242,16.785,2.904,1.849.326,3.98-1.108,3.409,1.966-1.204-.009-5.052-.759-4.967.959,11.463,3.52,23.382,3.831,35.284,4.936,8.782.431,16.399,3.424,25.395-.065,5.234-1.611,26.828,4.186,30.833-.96-6.605-3.653-12.978-3.745-20.388-1.955l-12.435-1.943c-.622-1.267-6.019-8.799-4.969-9.71,13.396-.86,13.429,3.038,23.608,7.54,11.508.195,23.848,1.703,35.591,1.2,1.209-.049,4.258-.941,3.467-.963-2.397-.065-20.671.226-27.946.075,6.724-2.227,25.71-1.204,27.955-1.056,1.968-1.969-7.655-18.099-8.617-21.416-15.667-.677-33.761,4.657-48.579,5.903-2.782-.051-.471-1.866.112-3.802.37-1.229.874-2.833-1.104-2.049-2.897,1.147-2.677,7.525-6.178,8.545-3.264.95-18.313.437-22.728.23-7.077-.332-31.115-2.473-36.195-5.457-3.856-2.265-6.65-7.399-13.003-7.208,2.301,5.953,4.666,6.95,2.979,13.597-.776-4.536-2.35-2.705-4.974-.972,3.015-5.291-2.694-11.401-2.938-16.099-.048-.914,2.159.63.948-3.331ZM171.876,321.673v.972c.646-.324.646-.648,0-.972Z" fill="#449243"/>
      <path d="M553.037,272.063c4.146,9.276,6.095,20.536,6.334,31.151-2.363-1.83-2.068-.076-3.03,1.413-3.087,4.774-6.597,11.37-5.923,17.046-5.277,3.63-1.777-6.501-2.212-10.134-1.835-15.342-3.625-18.786-11.815-30.69-.206-.3.441-1.612.067-2.182-.426-.649-4.67-3.884-3.948-4.589l20.526-2.015Z" fill="#449243"/>
      <path d="M513.608,309.529c.13-.803,2.55-7.362,3.059-8.474.594-1.3,5.234-2.865.929-4.643l-1.994,1.939c.112-3.86,5.79-8.605,9.442-8.822,1.044-.062,9.837,1.909,10.238,2.238,10.036,12.717,9.883,55.169-11.277,56.994l-7.374-6.26c3.23-6.376,3.794-1.478,6.62-.627,8.524,2.566,14.037-10.33,14.97-17.052,4.107-19.337-10.88-45.268-21.778-14.466.001,0-2.836,15.203-2.836,15.203.561-4.956-.77-11.286,0-16.03Z" fill="#969594"/>
      <path d="M341.498,349.848c-5.141-1.151-4.264-11.966-3.964-16.016,1.353-18.263,16.338-38.074,34.811-22.351.914,1.977-4.276,1.321-4.503,1.263-4.684-1.192-8.506-4.664-14.389-2.224-6.035,3.583-10.817,15.1-11.955,21.354,0,0,0,17.973,0,17.973Z" fill="#969594"/>
      <path d="M529.644,255.58c5.772,6.674,4.752,2.935,12.131,3.813,3.363,4.724,3.774-1.232,8.642,7.873-5.115,3.283-5.432-4.354-10.376-4.926-15.85-1.832-35.166,3.063-51.3,2.973l40.903-9.734Z" fill="#449243"/>
      <path d="M353.441,365.383c16.085-1.199,19.15-11.392,23.861-24.274,3.154,11.64-6.9,22.335-17.398,25.864-.852-.007-4.103-2.773-6.464-1.59Z" fill="#969594"/>
      <path d="M559.371,303.214c.843,5.814-3.867,16.015-8.954,18.459-.673-5.677,2.836-12.272,5.923-17.046.963-1.489.668-3.243,3.03-1.413Z" fill="#b4cc3c"/>
      <path d="M175.358,337.218c-.771,3.038-2.089,5.767-2.985,8.744-.206-.232-4.951-.569-5.969-1.943-2.477-2.816,1.535-6.19,3.979-7.772,2.624-1.733,4.199-3.564,4.975.971Z" fill="#b4cc3c"/>
      <path d="M177.335,303.207l-3.967-11.642c6.028,1.783,6.436,6.74,3.967,11.642Z" fill="#969594"/>
      <path d="M361.39,340.137c1.915,3.123-5.053,10.386-6.953,8.734-1.327-1.153,5.072-4.643,4.48-6.828l2.473-1.907Z" fill="#969594"/>
      <path d="M414.075,230.393c-1.316,9.587-18.189,25.854-24.526,34.745-33.951,1.451-67.593-3.721-101.449-4.369-2.277-.341-6.191,1.419-9.568.63-.595-.139-1.352-2.899-3.696-1.909,1.444-6.434,24.672-13.82,31.088-18.439,23.631-19.265,78.318-12.201,108.151-10.657ZM347.46,233.264c-.654.058-1.338-.065-1.99,0-5.617,2.505-10.655.905-16.912,2.915-7.971,1.465-21.74,9.803-28.845,13.611.489,3.824,23.337-7.853,26.855-8.753,8.155-.27,16.52-3.598,24.871-4.858,7.193-1.812,16.493-.553,22.877-3.877-9.025-.376-17.904.171-26.856.962Z" fill="#0d0e0e"/>
      <path d="M408.169,269.269c-4.382.627-7.983.853-10.96-2.468,6.468-12.532,19.542-26.177,25.213-31.26,21.942-14.301,62.831-1.483,80.723,14.688,5.089,16.685-84.992,17.611-94.976,19.04ZM456.896,234.244c-9.25.27-21.999-2.526-28.846,4.838l28.846-4.838ZM441.446,258.098c-3.237-3.435-4.477-2.404-8.864-3.51-6.845-5.376-18.476,2.414-20.443,9.759,1.035.863,24.028-.619,27.164-1.199,1.844-.341,2.676-.846,3.287-2.61.882-2.543-.259-1.5-1.144-2.439Z" fill="#0d0e0e"/>
      <path d="M257.137,307.938c-1.154-1.098-6.069-6.551-5.311-7.624,19.672-1.395,44.198-7.173,63.305-7.867,10.859-.018,14.383,11.437,5.506,15.184-5.928,2.502-21.237,3.783-28.306,4.79-5.504,3.46-20.981,2.333-27,1.742-1.731-.382-6.725-4.829-8.194-6.226ZM307.673,298.356c-17.126,1.876-31.24,6.033-47.748,6.81,15.762,5.348,32.102-4.01,47.743-3.415l-4.969,5.339c6.536-1.122,14.79-.117,14.916-8.729-3.243-.002-6.702-.214-9.942-.005Z" fill="#0d0e0e"/>
      <path d="M406.164,329.446c.318,2.594,1.23,5.114.993,7.779,18.212-1.755,62.007-6.093,74.511-19.119,1.34-4.145-2.916-5.389-2.925-5.734-.049-1.956,4.825-11.19,5.765-14.744,1.959-7.705,3.225-16.519,3.243-24.531,4.965,2.663.594,17.787-.272,22.574-1.397,5.06-8.459,14.379-5.752,18.531.725,1.112,3.493,1.251,3.028,3.09-5.425,2.833-8.859,8.623-14.227,11.375-23.373,8.113-49.785,8.469-74.308,11.456,1.058-2.719,9.544-.942,9.798-3.359-5.183-10.652-1.23-20.708-.859-31.13.13-10.193-.066-20.395.02-30.589,1.489.452,2.148,4.992,2.26,6.317.637,16.263-1.655,31.742-1.276,48.084Z" fill="#0d0e0e"/>
      <path d="M431.035,267.267c.266.025,5.163,1.123,4.968,1.932-14.463,1.353-14.595,1.56-4.968,11.66-8.232,1.437-16.838-7.462-22.881-11.649,7.099-.338,15.49-2.65,22.882-1.943Z" fill="#449243"/>
      <path d="M303.782,268.575c-17.268,2.677-40.581,11.573-60.769,18.113,18.175-11.215,39.501-16.068,60.201-20.377l.568,2.264Z" fill="#449243"/>
      <path d="M398.702,287.669c.8-.046,5.011-2.687,5.466-.011-4.91,2.519-20.289-.212-20.907,5.841l-3.954-3.414c-.373-.825,1.184-2.416,1.489-2.416,5.849,0,12.135.332,17.907,0Z" fill="#449243"/>
      <path d="M406.164,322.645l63.458-11.474c3-.801,7.769,1.555,4.171,4.168-19.914,6.089-44.409,7.393-65.202,11.084l-2.427,3.023c-.402-3.288-.002-4.411,0-6.801Z" fill="#b4cc3c"/>
      <path d="M175.358,337.218c1.687-6.647-.678-7.644-2.979-13.597,6.354-.191,9.148,4.943,13.003,7.208,5.081,2.985,29.118,5.126,36.195,5.457,4.415.207,19.464.721,22.728-.23,3.501-1.019,3.281-7.397,6.178-8.545,1.978-.783,1.474.82,1.104,2.049-.582,1.936-2.894,3.751-.112,3.8,14.826-1.246,32.898-6.577,48.579-5.902.962,3.317,10.585,19.447,8.617,21.416-12.976-.844-26.319,2.073-39.067.744-10.159-4.492-10.225-8.404-23.608-7.539-1.05.911,4.347,8.444,4.969,9.71.529,1.077.236,3.576,1.99,4.858-.11.015-.843.811-1.99.972-10.543-1.461-43.57-6.727-53.722-6.801.571-3.074-1.56-1.64-3.409-1.966-3.753-.662-14.021-3.415-16.785-2.904-.669.124-.826,1.629-1.946,2.221-4.395,2.326-2.097-1.493-2.732-2.208.896-2.977,2.214-5.706,2.985-8.744Z" fill="#0d0e0e"/>
      <path d="M197.245,350.82c9.99.053,43.342,5.361,53.722,6.801-9.64,1.348-14.58-.086-23.405-.905-11.902-1.106-23.821-1.416-35.284-4.936-.085-1.718,3.763-.968,4.967-.959Z" fill="#b4cc3c"/>
      <path d="M250.967,351.791l12.435,1.943c7.41-1.79,13.783-1.698,20.388,1.955-3.96,5.141-25.631-.647-30.833.959-1.754-1.282-1.461-3.781-1.99-4.858Z" fill="#b4cc3c"/>
      <path d="M286.782,349.848c7.275.151,14.605-.119,21.882.01.929,2.351-28.33,1.077-30.075.101.331.006,7.862-.118,8.193-.111Z" fill="#b4cc3c"/>
      <path d="M171.876,321.673c.646.324.646.648,0,.972v-.972Z" fill="#0d0e0e"/>
      <path d="M347.468,233.263c-.813,3.236,2.36,1.02,3.979,2.915-7.625,1.315-15.522,3.8-22.882,4.858l-.497-.952-.497.952c-.247.008-8.41.005-8.946.012,2.347-1.19,9.685-1.523,9.941-4.87,6.896-1.576,12.616-1.43,18.902-2.915Z" fill="#f8f7f7"/>
      <path d="M328.565,236.177c-.257,3.347-7.594,3.68-9.941,4.87l7.951-.012c-3.571.906-26.238,12.551-26.855,8.754,7.15-3.836,20.846-12.124,28.845-13.611Z" fill="#969594"/>
      <path d="M347.468,233.263c8.952-.791,17.831-1.337,26.856-.962-6.382,3.323-15.688,2.066-22.877,3.876-1.619-1.894-4.792.321-3.979-2.915Z" fill="#969594"/>
      <path d="M345.478,233.263c-.206.021-1.039.855-1.99.972l1.99-.972Z" fill="#969594"/>
      <path d="M328.565,241.035c-.324.047-.669-.041-.995,0l.497-.952.497.952Z" fill="#969594"/>
      <path d="M441.446,258.098c.885.939,2.025-.104,1.144,2.439-.612,1.765-1.444,2.269-3.287,2.61-3.135.581-26.129,2.063-27.164,1.199,1.971-7.347,13.595-15.134,20.443-9.759,4.388,1.106,5.628.075,8.865,3.51Z" fill="#b4cc3c"/>
      <path d="M456.896,234.244l-28.846,4.838c6.847-7.364,19.596-4.568,28.846-4.838Z" fill="#969594"/>
      <rect x="217.142" y="316.815" width="16.912" height=".972" fill="#969594"/>
      <path d="M307.673,298.356l1.006,4.857,6.953-4.857c.661.027,1.328-.033,1.984.005-.126,8.612-8.381,7.607-14.916,8.729l4.969-5.339c-15.632-.596-31.991,8.763-47.743,3.415,16.509-.778,30.621-4.935,47.748-6.81Z" fill="#969594"/>
      <path d="M315.632,298.356l-6.953,4.857-1.006-4.857c2.547-.146,5.401-.103,7.959,0Z" fill="#f8f7f7"/>
    </g>
  </g>
  <g>
    <path d="M421.148,361.147c1.37-.9,4.056-1.222,5.719-1.407,32.827-3.649,64.961-7.102,98.187-5.374,2.809.146,5.61,1.299,8.59.789.176,1.309-1.7.705-2.614.742-7.868.326-15.765.542-23.629.758l20.246,3.742c-5.101-.239-10.292.103-15.411.037-1.769-.023-4.693-1.93-4.092.708,1.104.909,17.253.977,19.919.798,1.396-.094,2.808.18,3.334-1.543,2.332.17,7.518.96,9.75,1.5.236.057.516-.06.75,0,.419,2.264-1.146,1.452-2.591,1.5-3.842.128-7.826.123-11.659,0-.102-.003-.848-.755-1.816-.78-9.009-.235-18.091.401-27.09.061-1.773-.067-3.419-.708-5.196-.811-.823-.048-2.844-.482-2.644.772,2.734.932,6.864.222,9.239.769.57.131.462,1.391,1.014,1.506,1.425.295,2.903-.6,4.242-.49,14.766,1.218,29.762,5.058,43.615,6.486l29.632,4.48c-26.987.043-54.01-.032-80.996.008l-13.883-1.492c-35.487-1.908-71.417-4.919-106.867-5.258,16.223-2.714,32.363-2.786,48.75-3,19.234-.252,38.546.498,57.758-.375-6.296-.853-12.81-2.015-19.139-2.619-13.01-1.24-25.656-1.076-38.619-1.506-1.496-.05-3.004.046-4.5,0Z" fill="#d0c14d"/>
    <path d="M406.866,181.017c-7.721,5.364-16.738,1.924-25.094,1.469-36.04-1.963-40.315,18.454-65.843,35.474-4.854,3.236-19.025,11.2-24.192,11.81-.767.091-2.825.51-2.615-.743,5.932-3.311,12.8-6.687,18.361-10.518,4.571-3.15,7.14-5.805,10.883-9.742,1.954-2.055,4.294-3.903,5.996-6.379-1.537-.642-3.969,1.101-5.246,1.879h-.75c-15.222,5.963-31.672,6.166-47.406,9.969-7.492,1.811-11.042,3.485-17.844,6.531-11.792,5.281-24.264,12.124-34.5,19.5l-2.25-.75c.159-.18.171-1.233.728-1.867,1.6-1.821,6.881-5.888,6.772-7.883,9.915-5.273,16.98-14.116,28.5-19.5l3.306,3.038c11.836-4.037,23.065-6.156,33.84-12.767,2.675-1.641,10.282-6.667,12.074-8.502,2.027-2.074,4.14-6.483,6.28-8.769-.097,1.181.212,2.709,0,3.75-1.083,5.321-4.669,9.44-7.495,13.88.575.942,2.154-.368,2.995-.38,14.62-.197,36.087-17.298,51.539-22.336,15.157-4.943,24.888,1.801,38.844,2.829,3.908.288,9.185.235,13.118.007Z" fill="#db7030"/>
    <path d="M376.898,368.647c35.45.339,71.38,3.35,106.867,5.258l13.883,1.492c-23.798.035-48.298-.772-72,0-1.246.041-2.508-.069-3.75,0l-98.246-.008,7.879-1.484c15.396.899,30.098-5.404,45.367-5.258Z" fill="#db7030"/>
    <path d="M303.366,200.517c26.4-8.112,40.525-32.377,70.796-29.171,10.259,1.086,18.141,5.953,29.319,5.162,5.262-.372,10.169-2.472,15.384-2.983-2.625,3.532-6.566,5.224-10.5,6.742-.304.117-.556.48-.75.75-.215.049-.493-.015-.75,0-3.932.228-9.21.281-13.118-.007-13.956-1.028-23.687-7.772-38.844-2.829-15.451,5.039-36.919,22.14-51.539,22.336Z" fill="#d0c14d"/>
    <path d="M495.346,193.039c-13.788-.073-17.334.578-27.286,10.11-1.066,1.021-3.457,1.163-.631,1.97l22.38-2.338c.706.912-2.258,1.527-2.916,1.962-1.761-1.424-5.105-.114-7.158.318-4.849,1.021-10.902,2.462-15.618,3.886-2.342.707-4.049,2.241-6.482,2.297-3.666-.149-7.384.111-11.053,0-1.079-.033-2.17.031-3.248-.007-.248-1.017.731-.336,1.314-1.049l-.017-.895c1.824-1.295,3.903-2.187,5.851-3.251,6.426-3.51,12.105-9.084,18.399-13.003.509-.317.495-1.131,1.674-1.685,8.107-3.807,17.139-2.566,24.788,1.685Z" fill="#db7030"/>
    <path d="M450.484,206.043c.359-1.71,2.34-1.545,3.036-2.165,5.081-4.526,9.055-12.278,15.147-15.738,15.584-8.85,27.501,2.992,43.579,1.656l-7.004,3.064c-3.412,1.42-7.047.196-9.897.181-7.649-4.25-16.681-5.492-24.788-1.685-1.179.554-1.165,1.368-1.674,1.685-6.295,3.919-11.973,9.493-18.399,13.003Z" fill="#d0c14d"/>
    <path d="M307.866,183.267c-2.141,2.286-4.254,6.695-6.28,8.769-1.792,1.835-9.399,6.861-12.074,8.502-10.774,6.611-22.004,8.73-33.84,12.767l-3.306-3.038c20.387-9.529,41.452-9.874,55.5-30.75,1.519.647.093,2.617,0,3.75Z" fill="#d0c14d"/>
    <path d="M488.294,207.8c-13.132,8.681-16.747,8.741-32.64,8.232-1.183-.038-1.043-.729-1.11-.732,2.806-.065,4.775-1.834,7.477-2.65,5.44-1.643,12.422-3.305,18.016-4.483,2.369-.499,6.225-2.009,8.257-.367Z" fill="#d0c14d"/>
    <path d="M388.866,196.767l-4.5,2.25c-7.45.857-18.487.411-25.5,2.25-3.591-.264.567-.439,0-2.25,10.608-4.378,19.009-2.985,30-2.25Z" fill="#db7030"/>
    <path d="M527.648,360.397c1.243.058,2.512-.09,3.75,0-.527,1.724-1.939,1.45-3.334,1.543-2.666.179-18.815.111-19.919-.798-.601-2.638,2.323-.731,4.092-.708,5.119.066,10.31-.276,15.411-.037Z" fill="#db7030"/>
  </g>
</svg>